<?xml version="1.0" encoding="UTF-8"?>
<svg width="500px" height="118px" viewBox="0 0 500 118" version="1.1" xmlns="http://www.w3.org/2000/svg" xmlns:xlink="http://www.w3.org/1999/xlink">
    <title>logo_2</title>
    <g id="页面-1" stroke="none" stroke-width="1" fill="none" fill-rule="evenodd">
        <g id="BitsLab_logo" transform="translate(-850.000000, -200.000000)" fill-rule="nonzero">
            <g id="logo_2" transform="translate(850.000000, 200.000000)">
                <g id="Lab" transform="translate(294.120684, 0.000000)" fill="#FFFFFF">
                    <path d="M16.6527249,117.808347 L0,117.808347 L0,4.95709019 C2.47854509,3.04654501 5.86072642,1.6523634 10.146544,0.774545342 C12.6767254,0.258181781 14.5614524,0 15.800725,0 C16.1105431,0 16.3945431,0.0258181781 16.6527249,0.0774545342 L16.6527249,117.808347 Z" id="路径"></path>
                    <path d="M72.3063895,101.155622 C75.1463891,101.155622 77.8572978,100.535985 80.4391156,99.2967128 C82.969297,98.160713 85.1896603,96.5083496 87.1002055,94.3396226 C89.062387,92.1708957 90.5598414,89.6923506 91.5925685,86.9039874 C92.7285683,84.0123514 93.2965682,80.9916246 93.2965682,77.8418069 C93.2965682,74.6919891 92.7285683,71.6712623 91.5925685,68.7796264 C90.5598414,65.9912631 89.062387,63.512718 87.1002055,61.3439911 C85.1896603,59.2269005 82.969297,57.5745371 80.4391156,56.3869009 C77.8572978,55.1476283 75.1463891,54.5279921 72.3063895,54.5279921 C69.4663899,54.5279921 66.729663,55.1476283 64.0962089,56.3869009 C61.6176638,57.5745371 59.3973005,59.2269005 57.4351189,61.3439911 C55.5245737,63.512718 54.0271194,65.9912631 52.9427559,68.7796264 C51.8583925,71.6712623 51.3162107,74.6919891 51.3162107,77.8418069 C51.3162107,80.9916246 51.8583925,84.0123514 52.9427559,86.9039874 C54.0271194,89.6923506 55.5245737,92.1708957 57.4351189,94.3396226 C59.3973005,96.5083496 61.6176638,98.160713 64.0962089,99.2967128 C66.729663,100.535985 69.4663899,101.155622 72.3063895,101.155622 Z M93.2965682,37.8752672 C93.55475,37.8236309 93.83875,37.7978127 94.1485681,37.7978127 C95.3878407,37.7978127 97.2467495,38.0559945 99.7252946,38.572358 C104.011112,39.3985397 107.419112,40.7927213 109.949293,42.7549029 L109.949293,117.808347 L93.2965682,117.808347 L93.2965682,110.992347 C86.9452964,115.536347 79.9485702,117.808347 72.3063895,117.808347 C67.1943902,117.808347 62.3147546,116.749801 57.6674825,114.632711 C53.1751195,112.618893 49.1733019,109.778893 45.6620297,106.112712 C42.2023939,102.446531 39.5173033,98.2123494 37.6067582,93.4101682 C35.6445766,88.453078 34.6634859,83.2636243 34.6634859,77.8418069 C34.6634859,72.4199895 35.6445766,67.2305357 37.6067582,62.2734455 C39.5173033,57.5229007 42.2023939,53.2887195 45.6620297,49.5709019 C49.1733019,45.9047206 53.1751195,43.064721 57.6674825,41.0509031 C62.3147546,38.9338125 67.1943902,37.8752672 72.3063895,37.8752672 C79.9485702,37.8752672 86.9452964,40.1472669 93.2965682,44.6912662 L93.2965682,37.8752672 Z" id="形状"></path>
                    <path d="M168.236412,101.155622 C171.076411,101.155622 173.78732,100.535985 176.369138,99.2967128 C178.899319,98.160713 181.119683,96.5083496 183.030228,94.3396226 C184.992409,92.1708957 186.489864,89.6923506 187.522591,86.9039874 C188.658591,84.0123514 189.226591,80.9916246 189.226591,77.8418069 C189.226591,74.6919891 188.658591,71.6712623 187.522591,68.7796264 C186.489864,65.9912631 184.992409,63.512718 183.030228,61.3439911 C181.119683,59.2269005 178.899319,57.5745371 176.369138,56.3869009 C173.78732,55.1476283 171.076411,54.5279921 168.236412,54.5279921 C165.396412,54.5279921 162.659685,55.1476283 160.026231,56.3869009 C157.547686,57.5745371 155.327323,59.2269005 153.365141,61.3439911 C151.454596,63.512718 149.957142,65.9912631 148.872778,68.7796264 C147.788415,71.6712623 147.246233,74.6919891 147.246233,77.8418069 C147.246233,80.9916246 147.788415,84.0123514 148.872778,86.9039874 C149.957142,89.6923506 151.454596,92.1708957 153.365141,94.3396226 C155.327323,96.5083496 157.547686,98.160713 160.026231,99.2967128 C162.659685,100.535985 165.396412,101.155622 168.236412,101.155622 Z M168.236412,37.8752672 C173.348411,37.8752672 178.228047,38.9338125 182.875319,41.0509031 C187.367682,43.064721 191.343681,45.9047206 194.803317,49.5709019 C198.314589,53.2887195 200.99968,57.5229007 202.858589,62.2734455 C204.872407,67.2305357 205.879316,72.4199895 205.879316,77.8418069 C205.879316,83.2636243 204.872407,88.453078 202.858589,93.4101682 C200.99968,98.160713 198.314589,102.394894 194.803317,106.112712 C191.343681,109.778893 187.367682,112.618893 182.875319,114.632711 C178.228047,116.749801 173.348411,117.808347 168.236412,117.808347 C160.542595,117.808347 153.545869,115.536347 147.246233,110.992347 L147.246233,117.808347 L130.593508,117.808347 L130.593508,4.95709019 C133.072053,3.04654501 136.454235,1.6523634 140.740052,0.774545342 C143.270234,0.258181781 145.154961,0 146.394233,0 C146.704051,0 146.988051,0.0258181781 147.246233,0.0774545342 L147.246233,44.6912662 C153.545869,40.1472669 160.542595,37.8752672 168.236412,37.8752672 Z" id="形状"></path>
                </g>
                <g id="Bits">
                    <path d="M37.6429036,101.155622 C40.4829032,101.155622 43.1938119,100.535985 45.7756297,99.2967128 C48.3058112,98.160713 50.5261745,96.5083496 52.4367196,94.3396226 C54.3989012,92.1708957 55.8963555,89.6923506 56.9290826,86.9039874 C58.0650825,84.0123514 58.6330824,80.9916246 58.6330824,77.8418069 C58.6330824,74.6919891 58.0650825,71.6712623 56.9290826,68.7796264 C55.8963555,65.9912631 54.3989012,63.512718 52.4367196,61.3439911 C50.5261745,59.2269005 48.3058112,57.5745371 45.7756297,56.3869009 C43.1938119,55.1476283 40.4829032,54.5279921 37.6429036,54.5279921 C34.802904,54.5279921 32.0661772,55.1476283 29.432723,56.3869009 C26.9541779,57.5745371 24.7338146,59.2269005 22.7716331,61.3439911 C20.8610879,63.512718 19.3636335,65.9912631 18.2792701,68.7796264 C17.1949066,71.6712623 16.6527249,74.6919891 16.6527249,77.8418069 C16.6527249,80.9916246 17.1949066,84.0123514 18.2792701,86.9039874 C19.3636335,89.6923506 20.8610879,92.1708957 22.7716331,94.3396226 C24.7338146,96.5083496 26.9541779,98.160713 29.432723,99.2967128 C32.0661772,100.535985 34.802904,101.155622 37.6429036,101.155622 Z M37.6429036,37.8752672 C42.7549029,37.8752672 47.6345385,38.9338125 52.2818106,41.0509031 C56.7741736,43.064721 60.750173,45.9047206 64.2098088,49.5709019 C67.7210811,53.2887195 70.4061716,57.5229007 72.2650804,62.2734455 C74.2788983,67.2305357 75.2858072,72.4199895 75.2858072,77.8418069 C75.2858072,83.2636243 74.2788983,88.453078 72.2650804,93.4101682 C70.4061716,98.160713 67.7210811,102.394894 64.2098088,106.112712 C60.750173,109.778893 56.7741736,112.618893 52.2818106,114.632711 C47.6345385,116.749801 42.7549029,117.808347 37.6429036,117.808347 C29.9490866,117.808347 22.9523603,115.536347 16.6527249,110.992347 L16.6527249,117.808347 L0,117.808347 L0,4.95709019 C2.47854509,3.04654501 5.86072642,1.6523634 10.146544,0.774545342 C12.6767254,0.258181781 14.5614524,0 15.800725,0 C16.1105431,0 16.3945431,0.0258181781 16.6527249,0.0774545342 L16.6527249,44.6912662 C22.9523603,40.1472669 29.9490866,37.8752672 37.6429036,37.8752672 Z" id="形状" fill="#FFFFFF"></path>
                    <path d="M110.217802,117.808347 L93.5650773,117.808347 L93.5650773,42.7549029 C96.0436224,40.7927213 99.4258037,39.3985397 103.711621,38.572358 C106.241803,38.0559945 108.12653,37.7978127 109.365802,37.7978127 C109.67562,37.7978127 109.95962,37.8236309 110.217802,37.8752672 L110.217802,117.808347 Z" id="形状" fill="#FFFFFF"></path>
                    <path d="M93.5650773,20.3705425 C96.0436224,18.4599973 99.4258037,17.0916339 103.711621,16.2654522 C106.241803,15.7490886 108.12653,15.4909068 109.365802,15.4909068 C109.67562,15.4909068 109.95962,15.516725 110.217802,15.5683614 L110.217802,31.4465409 C109.95962,31.3949045 109.67562,31.3690863 109.365802,31.3690863 C108.12653,31.3690863 106.241803,31.6272681 103.711621,32.1436317 C99.4258037,32.9698134 96.0436224,34.3381768 93.5650773,36.248722 L93.5650773,20.3705425 Z" id="路径" fill="#475DFF"></path>
                    <path d="M170.745939,101.155622 C172.70812,103.737439 174.076484,107.119621 174.851029,111.302166 C175.367393,113.729074 175.625574,115.562165 175.625574,116.801438 C175.625574,117.214528 175.599756,117.550165 175.54812,117.808347 L170.436121,117.730892 C164.291394,117.421074 159.308486,116.207619 155.487396,114.090529 C153.731759,113.057802 152.31176,112.128347 151.227396,111.302166 C147.406306,108.358893 144.411397,104.744348 142.24267,100.458531 C139.970671,96.0178042 138.834671,91.2672595 138.834671,86.2068966 L138.834671,51.3523562 L127.603763,51.3523562 L127.603763,50.9650835 C127.603763,49.3127201 127.887763,47.4538113 128.455763,45.388357 C129.333581,42.2385393 130.650308,39.734176 132.405944,37.8752672 L138.834671,37.8752672 L138.834671,20.3705425 C141.158307,18.6149064 144.23067,17.2981793 148.05176,16.4203612 C150.685214,15.8523613 153.00885,15.5683614 155.022668,15.5683614 L155.487396,15.5683614 L155.487396,37.8752672 L174.463756,37.8752672 L174.463756,38.2625399 C174.463756,39.9149033 174.179756,41.7738121 173.611757,43.8392664 C172.733939,46.9890841 171.417211,49.4934473 169.661575,51.3523562 L155.487396,51.3523562 L155.487396,86.2068966 C155.487396,89.3567143 156.287759,92.067623 157.888486,94.3396226 C159.127759,96.1468951 160.883395,97.6443494 163.155394,98.8319856 C165.685576,100.174531 168.215757,100.949076 170.745939,101.155622 Z" id="路径" fill="#FFFFFF"></path>
                    <path d="M242.974874,111.844347 C239.979965,113.961438 237.010875,115.381438 234.067602,116.104347 C230.401421,117.18871 226.399603,117.75671 222.06215,117.808347 C219.893423,117.808347 218.731605,117.782528 218.576695,117.730892 C211.657424,117.421074 205.874152,116.078529 201.22688,113.703256 C196.992699,111.586166 193.300699,108.436348 190.150881,104.253803 C189.686154,103.530894 188.911609,102.291621 187.827245,100.535985 L187.749791,100.381076 C189.350518,99.2967128 191.699972,98.1090766 194.798153,96.8181677 C198.929062,95.114168 202.388698,94.2363499 205.177061,94.1847136 L205.254516,94.4170772 C208.094515,99.1159856 213.335605,101.775258 220.977786,102.394894 C221.545786,102.446531 222.113786,102.472349 222.681786,102.472349 C224.230876,102.472349 225.59924,102.265803 226.786876,101.852712 C227.922876,101.491258 229.162148,100.845804 230.504694,99.9163491 C231.640694,99.1418038 232.466875,98.1090766 232.983239,96.8181677 C233.344693,95.9403497 233.525421,95.0625316 233.525421,94.1847136 L233.525421,93.5650773 C233.267239,91.2414413 231.356694,89.2276234 227.793785,87.5236236 C227.070876,87.2138055 224.205058,86.2068966 219.196332,84.5028968 C218.93815,84.4512604 216.640332,83.7541696 212.302878,82.4116244 C208.894879,81.3788973 206.622879,80.6043519 205.486879,80.0879884 C200.787971,78.1774432 197.328335,75.4148981 195.107972,71.8003532 C193.249063,68.8054445 192.319608,65.3716269 192.319608,61.4989001 C192.319608,54.6829011 194.720699,49.157811 199.52288,44.9236298 C202.466152,42.341812 205.951606,40.457085 209.979242,39.2694488 C213.180696,38.3399944 217.079241,37.8752672 221.674877,37.8752672 C222.501059,37.8752672 223.32724,37.9010854 224.153422,37.9527218 C234.997057,38.3141762 243.31051,43.1938119 249.093782,52.5916287 C249.351964,53.0047196 249.506873,53.2629013 249.558509,53.3661741 C248.061055,54.3472648 245.943964,55.3541738 243.207237,56.3869009 C239.954147,57.5745371 237.165784,58.1683552 234.842148,58.1683552 L234.53233,58.1683552 C234.53233,58.1167188 234.506511,58.0134461 234.454875,57.858537 C233.783602,56.3094464 232.286148,55.0185375 229.962512,53.9858103 C227.845421,53.0563559 225.341058,52.488356 222.449422,52.2818106 C221.674877,52.2301742 220.92615,52.204356 220.203241,52.204356 C216.846878,52.204356 214.316696,52.7207196 212.612696,53.7534467 C211.476697,54.4247194 210.624697,55.2767192 210.056697,56.3094464 C209.540333,57.3421735 209.282151,58.4007188 209.282151,59.4850823 C209.385424,62.2734455 211.450878,64.674536 215.478514,66.6883539 C217.182514,67.5145356 220.280695,68.5988991 224.773058,69.9414444 C229.885057,71.4388987 234.66142,73.3236257 239.102147,75.5956254 C244.523964,78.435625 248.241782,82.2825335 250.2556,87.136351 C251.339963,89.6665324 251.882145,92.3516229 251.882145,95.1916225 C251.882145,102.059258 248.913055,107.610166 242.974874,111.844347 Z" id="路径" fill="#FFFFFF"></path>
                </g>
            </g>
        </g>
    </g>
</svg>